<?xml version="1.0" encoding="UTF-8"?>
<svg id="Layer_1" xmlns="http://www.w3.org/2000/svg" version="1.1" viewBox="0 0 47 46">
  <!-- Generator: Adobe Illustrator 29.5.1, SVG Export Plug-In . SVG Version: 2.1.0 Build 141)  -->
  <defs>
    <style>
      .st0 {
        fill: #202139;
      }
    </style>
  </defs>
  <path class="st0" d="M22.2,1.6c.4-1,1.8-1,2.2,0l5.6,13.4c.2.4.6.7,1,.7l14.5,1.2c1.1,0,1.5,1.4.7,2.1l-11,9.4c-.3.3-.5.8-.4,1.2l3.4,14.1c.2,1-.9,1.9-1.8,1.3l-12.4-7.6c-.4-.2-.9-.2-1.3,0l-12.4,7.6c-.9.6-2-.3-1.8-1.3l3.4-14.1c.1-.4,0-.9-.4-1.2L.5,18.9c-.8-.7-.4-2,.7-2.1l14.4-1.2c.4,0,.8-.3,1-.7L22.2,1.6Z"/>
</svg>